<svg width="62" height="17" viewBox="0 0 62 17" xmlns="http://www.w3.org/2000/svg" xmlns:xlink="http://www.w3.org/1999/xlink"><defs><path id="0" d="M16.897 16.707H0V.092h16.897z"/><mask id="1" fill="#fff"><use xlink:href="#0"/></mask></defs><g fill="none" fill-rule="evenodd"><path d="M61.116 11.13c-.386 2.763-2.228 3.333-4.976 3.333H8.386c-2.748 0-4.877-.22-4.976-3.332V5.886c.351-3.207 2.228-3.332 4.976-3.332H58.63c4.9 0 2.486 8.577 2.486 8.577" fill="#2874f1"/><path d="M24.245 11.626h-1.363l-.388-1.919H19.62l-.985 1.92H17.26l3.838-7.415h1.668l1.478 7.414zm-1.898-2.894l-.545-2.6-.063-.787-.315.776-1.363 2.611h2.286zm2.506 2.748l.22-1.08c.022.02.121.055.3.104.178.05.409.096.692.142.283.045.543.068.781.068.392 0 .703-.065.933-.194.231-.13.346-.313.346-.55 0-.168-.094-.303-.283-.404a2.812 2.812 0 0 0-.681-.247 8.969 8.969 0 0 1-.803-.23c-.269-.091-.498-.24-.687-.446-.188-.206-.283-.47-.283-.792 0-.608.226-1.071.677-1.39.45-.318 1.1-.477 1.945-.477.413 0 .785.035 1.117.105.332.07.54.133.624.189l-.22 1.049c-.147-.077-.37-.145-.671-.205-.301-.06-.595-.089-.881-.089-.406 0-.73.06-.97.178-.242.12-.362.29-.362.514 0 .154.094.275.283.362.189.087.418.163.687.226.269.062.54.138.813.225.272.087.503.24.692.456.189.217.283.49.283.818 0 .65-.233 1.135-.698 1.453-.464.318-1.099.477-1.903.477-.308 0-.626-.023-.954-.068a7.97 7.97 0 0 1-.708-.12 9.393 9.393 0 0 1-.289-.074zm5.181 0l.22-1.08c.021.02.121.055.3.104.178.05.408.096.691.142.284.045.544.068.782.068.391 0 .702-.065.933-.194.23-.13.346-.313.346-.55 0-.168-.094-.303-.283-.404a2.812 2.812 0 0 0-.682-.247 8.969 8.969 0 0 1-.802-.23c-.27-.091-.498-.24-.687-.446-.189-.206-.283-.47-.283-.792 0-.608.225-1.071.676-1.39.451-.318 1.1-.477 1.946-.477.412 0 .785.035 1.117.105.332.07.54.133.624.189l-.22 1.049c-.147-.077-.371-.145-.672-.205-.3-.06-.594-.089-.88-.089-.406 0-.73.06-.97.178-.242.12-.363.29-.363.514 0 .154.095.275.284.362.188.087.417.163.687.226.269.062.54.138.812.225.273.087.504.24.692.456.19.217.284.49.284.818 0 .65-.233 1.135-.698 1.453-.465.318-1.1.477-1.903.477-.308 0-.626-.023-.955-.068a7.97 7.97 0 0 1-.707-.12 9.393 9.393 0 0 1-.289-.074zM41.14 6.1l-.88 5.526h-1.008l.126-1.468c-.314.497-.683.885-1.106 1.164a2.37 2.37 0 0 1-1.327.42c-.454 0-.8-.138-1.038-.414-.238-.277-.357-.645-.357-1.107 0-.182.014-.346.042-.493L36.17 6.1h1.259l-.525 3.377a2.728 2.728 0 0 0-.042.388c0 .489.179.734.535.734.308 0 .654-.184 1.038-.55a5.863 5.863 0 0 0 1.028-1.338l.41-2.611h1.268zm.461 5.526l.87-5.526h1.018l-.115 1.415c.622-1.013 1.339-1.52 2.15-1.52h.094l-.252 1.28c-.699 0-1.384.503-2.055 1.51l-.44 2.841H41.6zm9.155-4.08c-.014.574-.262 1.037-.745 1.39-.482.354-1.251.53-2.307.53-.252 0-.514-.01-.787-.031.007.426.125.744.352.954.227.21.596.315 1.106.315.608 0 1.22-.116 1.835-.346l-.178 1.059a5.979 5.979 0 0 1-1.94.325c-.88 0-1.515-.201-1.903-.603-.388-.402-.582-.98-.582-1.736 0-.958.284-1.765.854-2.422.57-.658 1.344-.986 2.323-.986.671 0 1.168.143 1.49.43.321.286.482.66.482 1.122zm-3.786 1.04c.09.006.238.01.44.01.364 0 .689-.023.976-.069.286-.045.541-.141.765-.288.224-.147.336-.339.336-.577a.644.644 0 0 0-.205-.487c-.136-.13-.34-.194-.613-.194-.413 0-.771.143-1.075.43-.304.286-.512.678-.624 1.174zm6.02 3.156c-.51 0-.912-.205-1.205-.614-.294-.409-.44-.935-.44-1.578 0-.329.032-.652.099-.97.066-.318.18-.636.34-.954.161-.319.362-.596.604-.834.24-.238.554-.432.938-.582.385-.15.818-.226 1.3-.226.33 0 .693.039 1.091.116l.084-.682.241-1.458h1.27l-1.217 7.666h-1.028l.136-1.342c-.692.972-1.43 1.458-2.212 1.458zm.336-1.143c.28 0 .608-.19.986-.572.378-.38.706-.816.986-1.305l.23-1.521c-.272-.119-.604-.178-.996-.178-.35 0-.653.075-.912.225-.259.15-.456.348-.593.593a3.026 3.026 0 0 0-.299.75 3.251 3.251 0 0 0-.094.78c0 .371.061.668.184.892.122.224.291.336.508.336z" fill="#fff"/><path d="M16.897 8.4c0 4.587-3.782 8.307-8.448 8.307s-8.45-3.72-8.45-8.308C0 3.811 3.784.092 8.45.092c4.666 0 8.448 3.719 8.448 8.307" fill="#2874f1" mask="url(#1)" transform="translate(0 .202)"/><path d="m15.647 8.601c0 3.91-3.223 7.078-7.198 7.078-3.976 0-7.199-3.169-7.199-7.078 0-3.909 3.223-7.078 7.199-7.078 3.975 0 7.198 3.17 7.198 7.078" fill="#ffde13"/><path d="m9.916 10.998h1.156c.43 0 .707-.307.837-.998.118-.662-.037-.956-.47-.956h-1.157l.183-.997c.204-1.136.81-1.694 1.807-1.694h.19c.555 0 .858-.089.902-.341.033-.172-.016-.406-.072-.664-.06-.251-.121-.493-.21-.631-.134-.23-.441-.34-.925-.34-1.199 0-2.184.324-2.96.979-.772.651-1.266 1.524-1.485 2.708l-.185.98h-2.43c-.038 0-2.55.273-2.55.273l2.312.34.092.332-1.414.115 1.487.21.059.27-3.341.276s3.694.138 3.732.138h1.684l-.71 5.154 2.687.273.781-5.427" fill="#2874f1"/></g></svg>